<?xml version="1.0" encoding="utf-8" standalone="no"?>
<!DOCTYPE svg PUBLIC "-//W3C//DTD SVG 1.1//EN"
  "http://www.w3.org/Graphics/SVG/1.1/DTD/svg11.dtd">
<svg xmlns:xlink="http://www.w3.org/1999/xlink" width="347.634175pt" height="179.910131pt" viewBox="0 0 347.634175 179.910131" xmlns="http://www.w3.org/2000/svg" version="1.1">
 <metadata>
  <rdf:RDF xmlns:dc="http://purl.org/dc/elements/1.1/" xmlns:cc="http://creativecommons.org/ns#" xmlns:rdf="http://www.w3.org/1999/02/22-rdf-syntax-ns#">
   <cc:Work>
    <dc:type rdf:resource="http://purl.org/dc/dcmitype/StillImage"/>
    <dc:date>2026-06-23T23:43:21.047539</dc:date>
    <dc:format>image/svg+xml</dc:format>
    <dc:creator>
     <cc:Agent>
      <dc:title>Matplotlib v3.9.4, https://matplotlib.org/</dc:title>
     </cc:Agent>
    </dc:creator>
   </cc:Work>
  </rdf:RDF>
 </metadata>
 <defs>
  <style type="text/css">*{stroke-linejoin: round; stroke-linecap: butt}</style>
 </defs>
 <g id="figure_1">
  <g id="patch_1">
   <path d="M 0 179.910131 
L 347.634175 179.910131 
L 347.634175 -0 
L 0 -0 
z
" style="fill: #ffffff"/>
  </g>
  <g id="axes_1">
   <g id="patch_2">
    <path d="M 30.302031 155.2896 
L 343.156431 155.2896 
L 343.156431 1.8 
L 30.302031 1.8 
z
" style="fill: #ffffff"/>
   </g>
   <g id="matplotlib.axis_1">
    <g id="xtick_1">
     <g id="line2d_1">
      <path d="M 30.302031 155.2896 
L 30.302031 1.8 
" clip-path="url(#pb77e444a02)" style="fill: none; stroke: #d9d9d9; stroke-opacity: 0.8; stroke-width: 0.4; stroke-linecap: square"/>
     </g>
     <g id="line2d_2">
      <defs>
       <path id="m3f28cf2fb2" d="M 0 0 
L 0 2.7 
" style="stroke: #000000; stroke-width: 0.75"/>
      </defs>
      <g>
       <use xlink:href="#m3f28cf2fb2" x="30.302031" y="155.2896" style="stroke: #000000; stroke-width: 0.75"/>
      </g>
     </g>
     <g id="text_1">
      <text style="font: 6.4px 'Arial', 'Helvetica', 'DejaVu Sans', sans-serif; text-anchor: middle" x="30.302031" y="166.0706" transform="rotate(-0 30.302031 166.0706)">0%</text>
     </g>
    </g>
    <g id="xtick_2">
     <g id="line2d_3">
      <path d="M 91.646031 155.2896 
L 91.646031 1.8 
" clip-path="url(#pb77e444a02)" style="fill: none; stroke: #d9d9d9; stroke-opacity: 0.8; stroke-width: 0.4; stroke-linecap: square"/>
     </g>
     <g id="line2d_4">
      <g>
       <use xlink:href="#m3f28cf2fb2" x="91.646031" y="155.2896" style="stroke: #000000; stroke-width: 0.75"/>
      </g>
     </g>
     <g id="text_2">
      <text style="font: 6.4px 'Arial', 'Helvetica', 'DejaVu Sans', sans-serif; text-anchor: middle" x="91.646031" y="166.0706" transform="rotate(-0 91.646031 166.0706)">20%</text>
     </g>
    </g>
    <g id="xtick_3">
     <g id="line2d_5">
      <path d="M 152.990031 155.2896 
L 152.990031 1.8 
" clip-path="url(#pb77e444a02)" style="fill: none; stroke: #d9d9d9; stroke-opacity: 0.8; stroke-width: 0.4; stroke-linecap: square"/>
     </g>
     <g id="line2d_6">
      <g>
       <use xlink:href="#m3f28cf2fb2" x="152.990031" y="155.2896" style="stroke: #000000; stroke-width: 0.75"/>
      </g>
     </g>
     <g id="text_3">
      <text style="font: 6.4px 'Arial', 'Helvetica', 'DejaVu Sans', sans-serif; text-anchor: middle" x="152.990031" y="166.0706" transform="rotate(-0 152.990031 166.0706)">40%</text>
     </g>
    </g>
    <g id="xtick_4">
     <g id="line2d_7">
      <path d="M 214.334031 155.2896 
L 214.334031 1.8 
" clip-path="url(#pb77e444a02)" style="fill: none; stroke: #d9d9d9; stroke-opacity: 0.8; stroke-width: 0.4; stroke-linecap: square"/>
     </g>
     <g id="line2d_8">
      <g>
       <use xlink:href="#m3f28cf2fb2" x="214.334031" y="155.2896" style="stroke: #000000; stroke-width: 0.75"/>
      </g>
     </g>
     <g id="text_4">
      <text style="font: 6.4px 'Arial', 'Helvetica', 'DejaVu Sans', sans-serif; text-anchor: middle" x="214.334031" y="166.0706" transform="rotate(-0 214.334031 166.0706)">60%</text>
     </g>
    </g>
    <g id="xtick_5">
     <g id="line2d_9">
      <path d="M 275.678031 155.2896 
L 275.678031 1.8 
" clip-path="url(#pb77e444a02)" style="fill: none; stroke: #d9d9d9; stroke-opacity: 0.8; stroke-width: 0.4; stroke-linecap: square"/>
     </g>
     <g id="line2d_10">
      <g>
       <use xlink:href="#m3f28cf2fb2" x="275.678031" y="155.2896" style="stroke: #000000; stroke-width: 0.75"/>
      </g>
     </g>
     <g id="text_5">
      <text style="font: 6.4px 'Arial', 'Helvetica', 'DejaVu Sans', sans-serif; text-anchor: middle" x="275.678031" y="166.0706" transform="rotate(-0 275.678031 166.0706)">80%</text>
     </g>
    </g>
    <g id="xtick_6">
     <g id="line2d_11">
      <path d="M 337.022031 155.2896 
L 337.022031 1.8 
" clip-path="url(#pb77e444a02)" style="fill: none; stroke: #d9d9d9; stroke-opacity: 0.8; stroke-width: 0.4; stroke-linecap: square"/>
     </g>
     <g id="line2d_12">
      <g>
       <use xlink:href="#m3f28cf2fb2" x="337.022031" y="155.2896" style="stroke: #000000; stroke-width: 0.75"/>
      </g>
     </g>
     <g id="text_6">
      <text style="font: 6.4px 'Arial', 'Helvetica', 'DejaVu Sans', sans-serif; text-anchor: middle" x="337.022031" y="166.0706" transform="rotate(-0 337.022031 166.0706)">100%</text>
     </g>
    </g>
    <g id="text_7">
     <text style="font: 7.4px 'Arial', 'Helvetica', 'DejaVu Sans', sans-serif; text-anchor: middle" x="186.729231" y="176.639381" transform="rotate(-0 186.729231 176.639381)">Success Rate</text>
    </g>
   </g>
   <g id="matplotlib.axis_2">
    <g id="ytick_1">
     <g id="line2d_13">
      <path d="M 30.302031 134.9748 
L 343.156431 134.9748 
" clip-path="url(#pb77e444a02)" style="fill: none; stroke: #d9d9d9; stroke-opacity: 0.8; stroke-width: 0.4; stroke-linecap: square"/>
     </g>
     <g id="line2d_14">
      <defs>
       <path id="ma4f519e80d" d="M 0 0 
L -2.7 0 
" style="stroke: #000000; stroke-width: 0.75"/>
      </defs>
      <g>
       <use xlink:href="#ma4f519e80d" x="30.302031" y="134.9748" style="stroke: #000000; stroke-width: 0.75"/>
      </g>
     </g>
     <g id="text_8">
      <text style="font: 6.8px 'Arial', 'Helvetica', 'DejaVu Sans', sans-serif; text-anchor: end" x="24.102031" y="137.408456" transform="rotate(-0 24.102031 137.408456)">−50</text>
     </g>
    </g>
    <g id="ytick_2">
     <g id="line2d_15">
      <path d="M 30.302031 112.4028 
L 343.156431 112.4028 
" clip-path="url(#pb77e444a02)" style="fill: none; stroke: #d9d9d9; stroke-opacity: 0.8; stroke-width: 0.4; stroke-linecap: square"/>
     </g>
     <g id="line2d_16">
      <g>
       <use xlink:href="#ma4f519e80d" x="30.302031" y="112.4028" style="stroke: #000000; stroke-width: 0.75"/>
      </g>
     </g>
     <g id="text_9">
      <text style="font: 6.8px 'Arial', 'Helvetica', 'DejaVu Sans', sans-serif; text-anchor: end" x="24.102031" y="114.836456" transform="rotate(-0 24.102031 114.836456)">0</text>
     </g>
    </g>
    <g id="ytick_3">
     <g id="line2d_17">
      <path d="M 30.302031 89.8308 
L 343.156431 89.8308 
" clip-path="url(#pb77e444a02)" style="fill: none; stroke: #d9d9d9; stroke-opacity: 0.8; stroke-width: 0.4; stroke-linecap: square"/>
     </g>
     <g id="line2d_18">
      <g>
       <use xlink:href="#ma4f519e80d" x="30.302031" y="89.8308" style="stroke: #000000; stroke-width: 0.75"/>
      </g>
     </g>
     <g id="text_10">
      <text style="font: 6.8px 'Arial', 'Helvetica', 'DejaVu Sans', sans-serif; text-anchor: end" x="24.102031" y="92.264456" transform="rotate(-0 24.102031 92.264456)">50</text>
     </g>
    </g>
    <g id="ytick_4">
     <g id="line2d_19">
      <path d="M 30.302031 67.2588 
L 343.156431 67.2588 
" clip-path="url(#pb77e444a02)" style="fill: none; stroke: #d9d9d9; stroke-opacity: 0.8; stroke-width: 0.4; stroke-linecap: square"/>
     </g>
     <g id="line2d_20">
      <g>
       <use xlink:href="#ma4f519e80d" x="30.302031" y="67.2588" style="stroke: #000000; stroke-width: 0.75"/>
      </g>
     </g>
     <g id="text_11">
      <text style="font: 6.8px 'Arial', 'Helvetica', 'DejaVu Sans', sans-serif; text-anchor: end" x="24.102031" y="69.692456" transform="rotate(-0 24.102031 69.692456)">100</text>
     </g>
    </g>
    <g id="ytick_5">
     <g id="line2d_21">
      <path d="M 30.302031 44.6868 
L 343.156431 44.6868 
" clip-path="url(#pb77e444a02)" style="fill: none; stroke: #d9d9d9; stroke-opacity: 0.8; stroke-width: 0.4; stroke-linecap: square"/>
     </g>
     <g id="line2d_22">
      <g>
       <use xlink:href="#ma4f519e80d" x="30.302031" y="44.6868" style="stroke: #000000; stroke-width: 0.75"/>
      </g>
     </g>
     <g id="text_12">
      <text style="font: 6.8px 'Arial', 'Helvetica', 'DejaVu Sans', sans-serif; text-anchor: end" x="24.102031" y="47.120456" transform="rotate(-0 24.102031 47.120456)">150</text>
     </g>
    </g>
    <g id="ytick_6">
     <g id="line2d_23">
      <path d="M 30.302031 22.1148 
L 343.156431 22.1148 
" clip-path="url(#pb77e444a02)" style="fill: none; stroke: #d9d9d9; stroke-opacity: 0.8; stroke-width: 0.4; stroke-linecap: square"/>
     </g>
     <g id="line2d_24">
      <g>
       <use xlink:href="#ma4f519e80d" x="30.302031" y="22.1148" style="stroke: #000000; stroke-width: 0.75"/>
      </g>
     </g>
     <g id="text_13">
      <text style="font: 6.8px 'Arial', 'Helvetica', 'DejaVu Sans', sans-serif; text-anchor: end" x="24.102031" y="24.548456" transform="rotate(-0 24.102031 24.548456)">200</text>
     </g>
    </g>
    <g id="text_14">
     <text style="font: 7.4px 'Arial', 'Helvetica', 'DejaVu Sans', sans-serif; text-anchor: middle" x="7.096781" y="78.5448" transform="rotate(-90 7.096781 78.5448)">Mean Reward</text>
    </g>
   </g>
   <g id="line2d_25">
    <path d="M 30.302031 112.4028 
L 343.156431 112.4028 
" clip-path="url(#pb77e444a02)" style="fill: none; stroke-dasharray: 2.59,1.12; stroke-dashoffset: 0; stroke: #999999; stroke-width: 0.7"/>
   </g>
   <g id="patch_3">
    <path d="M 30.302031 155.2896 
L 30.302031 1.8 
" style="fill: none; stroke: #333333; stroke-width: 0.75; stroke-linejoin: miter; stroke-linecap: square"/>
   </g>
   <g id="patch_4">
    <path d="M 30.302031 155.2896 
L 343.156431 155.2896 
" style="fill: none; stroke: #333333; stroke-width: 0.75; stroke-linejoin: miter; stroke-linecap: square"/>
   </g>
   <g id="PathCollection_1">
    <defs>
     <path id="m48521a588a" d="M 0 2.598076 
C 0.689018 2.598076 1.349908 2.324327 1.837117 1.837117 
C 2.324327 1.349908 2.598076 0.689018 2.598076 0 
C 2.598076 -0.689018 2.324327 -1.349908 1.837117 -1.837117 
C 1.349908 -2.324327 0.689018 -2.598076 0 -2.598076 
C -0.689018 -2.598076 -1.349908 -2.324327 -1.837117 -1.837117 
C -2.324327 -1.349908 -2.598076 -0.689018 -2.598076 0 
C -2.598076 0.689018 -2.324327 1.349908 -1.837117 1.837117 
C -1.349908 2.324327 -0.689018 2.598076 0 2.598076 
z
" style="stroke: #ffffff; stroke-opacity: 0.95; stroke-width: 0.45"/>
    </defs>
    <g clip-path="url(#pb77e444a02)">
     <use xlink:href="#m48521a588a" x="71.606991" y="141.019611" style="fill: #8e8e8e; fill-opacity: 0.95; stroke: #ffffff; stroke-opacity: 0.95; stroke-width: 0.45"/>
    </g>
   </g>
   <g id="PathCollection_2">
    <defs>
     <path id="mb3b7d2ede8" d="M 0 2.598076 
C 0.689018 2.598076 1.349908 2.324327 1.837117 1.837117 
C 2.324327 1.349908 2.598076 0.689018 2.598076 0 
C 2.598076 -0.689018 2.324327 -1.349908 1.837117 -1.837117 
C 1.349908 -2.324327 0.689018 -2.598076 0 -2.598076 
C -0.689018 -2.598076 -1.349908 -2.324327 -1.837117 -1.837117 
C -2.324327 -1.349908 -2.598076 -0.689018 -2.598076 0 
C -2.598076 0.689018 -2.324327 1.349908 -1.837117 1.837117 
C -1.349908 2.324327 -0.689018 2.598076 0 2.598076 
z
" style="stroke: #ffffff; stroke-opacity: 0.95; stroke-width: 0.45"/>
    </defs>
    <g clip-path="url(#pb77e444a02)">
     <use xlink:href="#mb3b7d2ede8" x="291.320751" y="39.658406" style="fill: #4e79a7; fill-opacity: 0.95; stroke: #ffffff; stroke-opacity: 0.95; stroke-width: 0.45"/>
    </g>
   </g>
   <g id="PathCollection_3">
    <defs>
     <path id="m67c07b6015" d="M 0 2.598076 
C 0.689018 2.598076 1.349908 2.324327 1.837117 1.837117 
C 2.324327 1.349908 2.598076 0.689018 2.598076 0 
C 2.598076 -0.689018 2.324327 -1.349908 1.837117 -1.837117 
C 1.349908 -2.324327 0.689018 -2.598076 0 -2.598076 
C -0.689018 -2.598076 -1.349908 -2.324327 -1.837117 -1.837117 
C -2.324327 -1.349908 -2.598076 -0.689018 -2.598076 0 
C -2.598076 0.689018 -2.324327 1.349908 -1.837117 1.837117 
C -1.349908 2.324327 -0.689018 2.598076 0 2.598076 
z
" style="stroke: #ffffff; stroke-opacity: 0.95; stroke-width: 0.45"/>
    </defs>
    <g clip-path="url(#pb77e444a02)">
     <use xlink:href="#m67c07b6015" x="302.158191" y="31.37621" style="fill: #59a14f; fill-opacity: 0.95; stroke: #ffffff; stroke-opacity: 0.95; stroke-width: 0.45"/>
    </g>
   </g>
   <g id="PathCollection_4">
    <defs>
     <path id="m7a878a9d95" d="M 0 2.598076 
C 0.689018 2.598076 1.349908 2.324327 1.837117 1.837117 
C 2.324327 1.349908 2.598076 0.689018 2.598076 0 
C 2.598076 -0.689018 2.324327 -1.349908 1.837117 -1.837117 
C 1.349908 -2.324327 0.689018 -2.598076 0 -2.598076 
C -0.689018 -2.598076 -1.349908 -2.324327 -1.837117 -1.837117 
C -2.324327 -1.349908 -2.598076 -0.689018 -2.598076 0 
C -2.598076 0.689018 -2.324327 1.349908 -1.837117 1.837117 
C -1.349908 2.324327 -0.689018 2.598076 0 2.598076 
z
" style="stroke: #ffffff; stroke-opacity: 0.95; stroke-width: 0.45"/>
    </defs>
    <g clip-path="url(#pb77e444a02)">
     <use xlink:href="#m7a878a9d95" x="265.454031" y="48.740187" style="fill: #d9902f; fill-opacity: 0.95; stroke: #ffffff; stroke-opacity: 0.95; stroke-width: 0.45"/>
    </g>
   </g>
   <g id="PathCollection_5">
    <defs>
     <path id="m04acc18504" d="M 0 2.598076 
C 0.689018 2.598076 1.349908 2.324327 1.837117 1.837117 
C 2.324327 1.349908 2.598076 0.689018 2.598076 0 
C 2.598076 -0.689018 2.324327 -1.349908 1.837117 -1.837117 
C 1.349908 -2.324327 0.689018 -2.598076 0 -2.598076 
C -0.689018 -2.598076 -1.349908 -2.324327 -1.837117 -1.837117 
C -2.324327 -1.349908 -2.598076 -0.689018 -2.598076 0 
C -2.598076 0.689018 -2.324327 1.349908 -1.837117 1.837117 
C -1.349908 2.324327 -0.689018 2.598076 0 2.598076 
z
" style="stroke: #ffffff; stroke-opacity: 0.95; stroke-width: 0.45"/>
    </defs>
    <g clip-path="url(#pb77e444a02)">
     <use xlink:href="#m04acc18504" x="231.203631" y="52.53982" style="fill: #76b7b2; fill-opacity: 0.95; stroke: #ffffff; stroke-opacity: 0.95; stroke-width: 0.45"/>
    </g>
   </g>
   <g id="PathCollection_6">
    <defs>
     <path id="ma3309b8538" d="M 0 2.598076 
C 0.689018 2.598076 1.349908 2.324327 1.837117 1.837117 
C 2.324327 1.349908 2.598076 0.689018 2.598076 0 
C 2.598076 -0.689018 2.324327 -1.349908 1.837117 -1.837117 
C 1.349908 -2.324327 0.689018 -2.598076 0 -2.598076 
C -0.689018 -2.598076 -1.349908 -2.324327 -1.837117 -1.837117 
C -2.324327 -1.349908 -2.598076 -0.689018 -2.598076 0 
C -2.598076 0.689018 -2.324327 1.349908 -1.837117 1.837117 
C -1.349908 2.324327 -0.689018 2.598076 0 2.598076 
z
" style="stroke: #ffffff; stroke-opacity: 0.95; stroke-width: 0.45"/>
    </defs>
    <g clip-path="url(#pb77e444a02)">
     <use xlink:href="#ma3309b8538" x="231.919311" y="46.130845" style="fill: #af7aa1; fill-opacity: 0.95; stroke: #ffffff; stroke-opacity: 0.95; stroke-width: 0.45"/>
    </g>
   </g>
   <g id="patch_5">
    <path d="M 75.912926 141.211923 
Q 75.259046 141.18272 75.219473 141.180952 
" style="fill: none; stroke: #8c8c8c; stroke-width: 0.55; stroke-linecap: round"/>
    <path d="M 77.368203 142.378016 
L 75.219473 141.180952 
L 77.466362 140.180207 
" style="fill: none; stroke: #8c8c8c; stroke-width: 0.55; stroke-linecap: round"/>
   </g>
   <g id="text_15">
    <text style="fill: #222222; font: 6.6px 'Arial', 'Helvetica', 'DejaVu Sans', sans-serif; text-anchor: start" x="80.910831" y="143.452603" transform="rotate(-0 80.910831 143.452603)">PPO</text>
   </g>
   <g id="patch_6">
    <path d="M 296.242934 46.164161 
Q 294.686726 44.107288 293.501535 42.540794 
" style="fill: none; stroke: #8c8c8c; stroke-width: 0.55; stroke-linecap: round"/>
    <path d="M 293.951703 44.958923 
L 293.501535 42.540794 
L 295.706139 43.631537 
" style="fill: none; stroke: #8c8c8c; stroke-width: 0.55; stroke-linecap: round"/>
   </g>
   <g id="text_16">
    <text style="fill: #222222; font: 6.6px 'Arial', 'Helvetica', 'DejaVu Sans', sans-serif; text-anchor: start" x="295.614831" y="55.279676" transform="rotate(-0 295.614831 55.279676)">TD3</text>
   </g>
   <g id="patch_7">
    <path d="M 302.423282 28.907462 
Q 302.290737 30.141836 302.223843 30.764806 
" style="fill: none; stroke: #8c8c8c; stroke-width: 0.55; stroke-linecap: round"/>
    <path d="M 303.552438 28.694822 
L 302.223843 30.764806 
L 301.365013 28.459939 
" style="fill: none; stroke: #8c8c8c; stroke-width: 0.55; stroke-linecap: round"/>
   </g>
   <g id="text_17">
    <text style="fill: #222222; font: 6.6px 'Arial', 'Helvetica', 'DejaVu Sans', sans-serif; text-anchor: middle" x="303.282831" y="22.60881" transform="rotate(-0 303.282831 22.60881)">SAC</text>
   </g>
   <g id="patch_8">
    <path d="M 275.104286 53.171038 
Q 271.642116 51.581405 268.738775 50.248356 
" style="fill: none; stroke: #8c8c8c; stroke-width: 0.55; stroke-linecap: round"/>
    <path d="M 270.279114 52.165998 
L 268.738775 50.248356 
L 271.197093 50.16667 
" style="fill: none; stroke: #8c8c8c; stroke-width: 0.55; stroke-linecap: round"/>
   </g>
   <g id="text_18">
    <text style="fill: #222222; font: 6.6px 'Arial', 'Helvetica', 'DejaVu Sans', sans-serif; text-anchor: start" x="272.610831" y="61.228834" transform="rotate(-0 272.610831 61.228834)">SAC_Large</text>
   </g>
   <g id="patch_9">
    <path d="M 231.203631 56.841971 
Q 231.203631 56.192867 231.203631 56.158682 
" style="fill: none; stroke: #8c8c8c; stroke-width: 0.55; stroke-linecap: round"/>
    <path d="M 230.103631 58.358682 
L 231.203631 56.158682 
L 232.303631 58.358682 
" style="fill: none; stroke: #8c8c8c; stroke-width: 0.55; stroke-linecap: round"/>
   </g>
   <g id="text_19">
    <text style="fill: #222222; font: 6.6px 'Arial', 'Helvetica', 'DejaVu Sans', sans-serif; text-anchor: middle" x="231.203631" y="66.565676" transform="rotate(-0 231.203631 66.565676)">GRU_SAC</text>
   </g>
   <g id="patch_10">
    <path d="M 231.735357 43.359454 
Q 231.827334 44.74515 231.878585 45.517277 
" style="fill: none; stroke: #8c8c8c; stroke-width: 0.55; stroke-linecap: round"/>
    <path d="M 232.830462 43.249254 
L 231.878585 45.517277 
L 230.635293 43.394961 
" style="fill: none; stroke: #8c8c8c; stroke-width: 0.55; stroke-linecap: round"/>
   </g>
   <g id="text_20">
    <text style="fill: #222222; font: 6.6px 'Arial', 'Helvetica', 'DejaVu Sans', sans-serif; text-anchor: middle" x="231.203631" y="37.05489" transform="rotate(-0 231.203631 37.05489)">LSTM_SAC</text>
   </g>
   <g id="patch_11">
    <path d="M 327.905139 13.964569 
Q 327.921468 14.044834 327.81521 13.522523 
" style="fill: none; stroke: #8c8c8c; stroke-width: 0.55; stroke-linecap: round"/>
    <path d="M 328.454553 11.147394 
L 327.81521 13.522523 
L 326.298713 11.585971 
" style="fill: none; stroke: #8c8c8c; stroke-width: 0.55; stroke-linecap: round"/>
   </g>
   <g id="text_21">
    <text style="fill: #222222; font: 700 6.6px 'Arial', 'Helvetica', 'DejaVu Sans', sans-serif; text-anchor: middle" x="326.286831" y="7.720571" transform="rotate(-0 326.286831 7.720571)">HW_GA_SAC</text>
   </g>
   <g id="PathCollection_7">
    <defs>
     <path id="mdd5d0e09d8" d="M 0 2.783882 
C 0.738294 2.783882 1.446449 2.490555 1.968502 1.968502 
C 2.490555 1.446449 2.783882 0.738294 2.783882 0 
C 2.783882 -0.738294 2.490555 -1.446449 1.968502 -1.968502 
C 1.446449 -2.490555 0.738294 -2.783882 0 -2.783882 
C -0.738294 -2.783882 -1.446449 -2.490555 -1.968502 -1.968502 
C -2.490555 -1.446449 -2.783882 -0.738294 -2.783882 0 
C -2.783882 0.738294 -2.490555 1.446449 -1.968502 1.968502 
C -1.446449 2.490555 -0.738294 2.783882 0 2.783882 
z
" style="stroke: #ffffff; stroke-opacity: 0.95; stroke-width: 0.45"/>
    </defs>
    <g clip-path="url(#pb77e444a02)">
     <use xlink:href="#mdd5d0e09d8" x="328.536111" y="17.066134" style="fill: #e15759; fill-opacity: 0.95; stroke: #ffffff; stroke-opacity: 0.95; stroke-width: 0.45"/>
    </g>
   </g>
  </g>
 </g>
 <defs>
  <clipPath id="pb77e444a02">
   <rect x="30.302031" y="1.8" width="312.8544" height="153.4896"/>
  </clipPath>
 </defs>
</svg>
